<svg width="0" height="0" class="hidden">
  <symbol xmlns="http://www.w3.org/2000/svg" viewBox="0 0 512 512" id="chevron-forward-outline">
    <path fill="none" stroke="currentColor" stroke-linecap="round" stroke-linejoin="round" stroke-width="48" d="M184 112l144 144-144 144"></path>
  </symbol>
  <symbol fill="none" xmlns="http://www.w3.org/2000/svg" viewBox="0 0 40 40" id="facebook">
    <circle cx="20" cy="20" r="20" fill="#FAFAFA"></circle>
    <path d="M26 10H23C21.6739 10 20.4021 10.5268 19.4645 11.4645C18.5268 12.4021 18 13.6739 18 15V18H15V22H18V30H22V22H25L26 18H22V15C22 14.7348 22.1054 14.4804 22.2929 14.2929C22.4804 14.1054 22.7348 14 23 14H26V10Z" stroke="black" stroke-width="2" stroke-linecap="round" stroke-linejoin="round"></path>
  </symbol>
  <symbol fill="none" xmlns="http://www.w3.org/2000/svg" viewBox="0 0 41 30" id="hamburger">
    <rect width="41" height="6" fill="black"></rect>
    <rect y="12" width="41" height="6" fill="black"></rect>
    <rect y="24" width="41" height="6" fill="black"></rect>
  </symbol>
  <symbol fill="none" xmlns="http://www.w3.org/2000/svg" viewBox="0 0 35 34" id="hamburger-close">
    <path d="M5.02061 0.461671L34.1951 29.2688L29.9794 33.5382L0.804932 4.73111L5.02061 0.461671Z" fill="black"></path>
    <path d="M1.04318 29.5865L29.66 0.225342L33.9567 4.41317L5.33993 33.7743L1.04318 29.5865Z" fill="black"></path>
  </symbol>
  <symbol fill="none" xmlns="http://www.w3.org/2000/svg" viewBox="0 0 40 41" id="instagram">
    <circle cx="20" cy="20.0161" r="20" fill="#FAFAFA"></circle>
    <path d="M25 10.0161H15C12.2386 10.0161 10 12.2547 10 15.0161V25.0161C10 27.7775 12.2386 30.0161 15 30.0161H25C27.7614 30.0161 30 27.7775 30 25.0161V15.0161C30 12.2547 27.7614 10.0161 25 10.0161Z" stroke="black" stroke-width="2" stroke-linecap="round" stroke-linejoin="round"></path>
    <path d="M24 19.3861C24.1234 20.2184 23.9813 21.0683 23.5938 21.8151C23.2063 22.5619 22.5931 23.1675 21.8416 23.5458C21.0901 23.924 20.2384 24.0557 19.4078 23.922C18.5771 23.7884 17.8098 23.3962 17.2148 22.8013C16.6199 22.2063 16.2277 21.439 16.0941 20.6083C15.9604 19.7777 16.0921 18.926 16.4703 18.1745C16.8486 17.423 17.4542 16.8099 18.201 16.4224C18.9478 16.0349 19.7978 15.8927 20.63 16.0161C21.4789 16.142 22.2648 16.5376 22.8717 17.1444C23.4785 17.7513 23.8741 18.5372 24 19.3861Z" stroke="black" stroke-width="2" stroke-linecap="round" stroke-linejoin="round"></path>
    <path d="M25.5 14.5161H25.51" stroke="black" stroke-width="2" stroke-linecap="round" stroke-linejoin="round"></path>
  </symbol>
  <symbol fill="none" xmlns="http://www.w3.org/2000/svg" viewBox="0 0 226 56" id="logo">
    <path d="M85.464 38.336C84.0267 38.336 82.7293 38.056 81.572 37.496C80.4147 36.9173 79.4907 36.0493 78.8 34.892C78.128 33.7347 77.792 32.2693 77.792 30.496V18.4H81.376V30.524C81.376 32.0547 81.74 33.1933 82.468 33.94C83.2147 34.6867 84.2413 35.06 85.548 35.06C86.836 35.06 87.8533 34.6867 88.6 33.94C89.3467 33.1933 89.72 32.0547 89.72 30.524V18.4H93.304V30.496C93.304 32.2693 92.9493 33.7347 92.24 34.892C91.5307 36.0493 90.5787 36.9173 89.384 37.496C88.208 38.056 86.9013 38.336 85.464 38.336ZM104.803 38V18.4H112.055C113.623 18.4 114.92 18.6613 115.947 19.184C116.973 19.7067 117.739 20.4253 118.243 21.34C118.747 22.2547 118.999 23.2813 118.999 24.42C118.999 25.5027 118.756 26.5013 118.271 27.416C117.785 28.312 117.029 29.04 116.003 29.6C114.976 30.1413 113.66 30.412 112.055 30.412H108.387V38H104.803ZM108.387 27.5H111.831C113.081 27.5 113.977 27.2293 114.519 26.688C115.079 26.128 115.359 25.372 115.359 24.42C115.359 23.4493 115.079 22.6933 114.519 22.152C113.977 21.592 113.081 21.312 111.831 21.312H108.387V27.5ZM129.65 38V18.4H137.518C139.553 18.4 141.102 18.876 142.166 19.828C143.249 20.7613 143.79 21.9653 143.79 23.44C143.79 24.672 143.454 25.6613 142.782 26.408C142.129 27.136 141.326 27.6307 140.374 27.892C141.494 28.116 142.418 28.676 143.146 29.572C143.874 30.4493 144.238 31.476 144.238 32.652C144.238 34.2013 143.678 35.48 142.558 36.488C141.438 37.496 139.852 38 137.798 38H129.65ZM133.234 26.632H136.986C137.994 26.632 138.769 26.3987 139.31 25.932C139.852 25.4653 140.122 24.8027 140.122 23.944C140.122 23.1227 139.852 22.4787 139.31 22.012C138.788 21.5267 137.994 21.284 136.93 21.284H133.234V26.632ZM133.234 35.088H137.238C138.302 35.088 139.124 34.8453 139.702 34.36C140.3 33.856 140.598 33.156 140.598 32.26C140.598 31.3453 140.29 30.6267 139.674 30.104C139.058 29.5813 138.228 29.32 137.182 29.32H133.234V35.088ZM164.338 38.336C162.378 38.336 160.661 37.9067 159.186 37.048C157.73 36.1893 156.582 35.004 155.742 33.492C154.921 31.9613 154.51 30.1973 154.51 28.2C154.51 26.2027 154.921 24.448 155.742 22.936C156.582 21.4053 157.73 20.2107 159.186 19.352C160.661 18.4933 162.378 18.064 164.338 18.064C166.28 18.064 167.988 18.4933 169.462 19.352C170.937 20.2107 172.085 21.4053 172.906 22.936C173.728 24.448 174.138 26.2027 174.138 28.2C174.138 30.1973 173.728 31.9613 172.906 33.492C172.085 35.004 170.937 36.1893 169.462 37.048C167.988 37.9067 166.28 38.336 164.338 38.336ZM164.338 35.116C166.205 35.116 167.689 34.5 168.79 33.268C169.91 32.036 170.47 30.3467 170.47 28.2C170.47 26.0533 169.91 24.364 168.79 23.132C167.689 21.9 166.205 21.284 164.338 21.284C162.472 21.284 160.978 21.9 159.858 23.132C158.738 24.364 158.178 26.0533 158.178 28.2C158.178 30.3467 158.738 32.036 159.858 33.268C160.978 34.5 162.472 35.116 164.338 35.116ZM182.769 38L188.901 28.088L182.685 18.4H186.801L191.197 25.232L195.229 18.4H199.261L193.129 28.256L199.401 38H195.285L190.833 31.084L186.801 38H182.769Z" fill="black"></path>
    <rect width="56" height="56" rx="28" fill="black"></rect>
    <path d="M20.2806 42.4242C18.2736 42.4242 16.494 42.0638 14.9419 41.343C13.4166 40.6221 12.2124 39.4875 11.3293 37.939C10.4729 36.3638 10.0448 34.2948 10.0448 31.7318V27.4068C10.0448 25.9117 10.0448 24.4033 10.0448 22.8815C10.0448 21.3598 10.0314 19.8247 10.0046 18.2762C10.0046 17.235 9.50957 16.5809 8.51944 16.3139L7.63635 16.1137V15.2727H18.4743V16.1137L17.3503 16.354C16.3334 16.5942 15.825 17.2617 15.825 18.3563C15.7982 19.8514 15.7849 21.3598 15.7849 22.8815C15.7849 24.3766 15.7849 25.885 15.7849 27.4068V32.4927C15.7849 35.0824 16.3067 36.9512 17.3503 38.0992C18.4207 39.2472 19.9327 39.8212 21.8862 39.8212C23.9467 39.8212 25.5523 39.2072 26.703 37.9791C27.8805 36.7243 28.4692 34.8688 28.4692 32.4126V18.4764C28.4692 17.9425 28.3622 17.4753 28.1481 17.0748C27.934 16.6743 27.5594 16.4207 27.0242 16.3139L26.0608 16.1137V15.2727H32.2424V16.1137L31.1185 16.354C30.61 16.4608 30.2622 16.701 30.0748 17.0748C29.8875 17.4486 29.7938 17.9024 29.7938 18.4364V32.1723C29.7938 35.4828 28.9241 38.0191 27.1847 39.7812C25.4453 41.5432 23.1439 42.4242 20.2806 42.4242Z" fill="white"></path>
    <path d="M19.6034 42.4242L21.3004 41.5616L25.4545 39.8788C26.0247 39.6597 26.5372 39.3863 26.7273 39.0303C26.9445 38.6743 27.1515 38.36 27.1515 37.7576C28 36.0606 28.5498 35.9341 28.5498 34.3732C28.5498 32.785 28.5498 31.1967 28.5498 29.6084V28.1296C28.5498 26.5413 28.5362 24.9667 28.5091 23.4058C28.5091 21.8175 28.5091 20.2293 28.5091 18.641C28.5091 17.9837 28.4141 17.4908 28.224 17.1622C28.0339 16.8062 27.6402 16.5324 27.0429 16.3407L26.3913 16.1353V15.2727H37.8764C41.1345 15.2727 43.4967 15.8889 44.9629 17.1211C46.4291 18.3261 47.1622 19.8596 47.1622 21.7217C47.1622 23.1457 46.6463 24.4327 45.6145 25.5829C44.5828 26.7056 42.7772 27.5135 40.1978 28.0064C43.1845 28.335 45.343 29.1155 46.6735 30.3478C48.0039 31.58 48.6691 33.0862 48.6691 34.8662C48.6691 35.7425 48.479 36.6324 48.0989 37.5361C47.7188 38.4124 47.0672 39.2203 46.144 39.9596C45.248 40.699 44.0262 41.3015 42.4785 41.767C40.9309 42.2051 38.976 42.4242 36.6138 42.4242H19.6034ZM34.3331 27.7189H36.2473C38.0936 27.7189 39.424 27.3081 40.2385 26.4866C41.0802 25.6377 41.5011 24.2 41.5011 22.1735C41.5011 20.065 41.121 18.5862 40.3607 17.7373C39.6005 16.8884 38.4058 16.4639 36.7767 16.4639H34.3331V27.7189ZM34.3331 41.233H36.5731C38.6095 41.233 40.1299 40.7264 41.1345 39.7132C42.1392 38.7 42.6415 37.0706 42.6415 34.8251C42.6415 32.6617 42.1527 31.1419 41.1753 30.2656C40.225 29.3619 38.6502 28.9101 36.4509 28.9101H34.3331V41.233Z" fill="white"></path>
    <path d="M36.0606 28.9077C35.2121 28.9077 35.6363 30.121 35.6363 30.121H40.303L46.2424 29.2725L44.1212 27.9998C44.1212 27.9998 40.6769 27.8871 40.2266 27.9998C40.2266 27.9998 36.9091 28.9077 36.0606 28.9077Z" fill="black"></path>
  </symbol>
  <symbol fill="none" xmlns="http://www.w3.org/2000/svg" viewBox="0 0 40 40" id="twitter">
    <circle cx="20" cy="20" r="20" fill="#FAFAFA"></circle>
    <path d="M31 11.0101C30.0424 11.6855 28.9821 12.2022 27.86 12.5401C27.2577 11.8476 26.4573 11.3567 25.567 11.134C24.6767 10.9112 23.7395 10.9673 22.8821 11.2945C22.0247 11.6218 21.2884 12.2045 20.773 12.9638C20.2575 13.7231 19.9877 14.6224 20 15.5401V16.5401C18.2426 16.5856 16.5013 16.1959 14.931 15.4055C13.3607 14.6151 12.0103 13.4487 11 12.0101C11 12.0101 7 21.0101 16 25.0101C13.9405 26.408 11.4872 27.109 9 27.0101C18 32.0101 29 27.0101 29 15.5101C28.9991 15.2315 28.9723 14.9537 28.92 14.6801C29.9406 13.6735 30.6608 12.4028 31 11.0101V11.0101Z" stroke="black" stroke-width="2" stroke-linecap="round" stroke-linejoin="round"></path>
  </symbol>
</svg>